<svg width="20" height="20" viewBox="0 0 20 20" fill="none" xmlns="http://www.w3.org/2000/svg">
<path d="M20 9.15408V18.3999C20 18.8242 19.8244 19.2312 19.5118 19.5313C19.1993 19.8314 18.7753 20 18.3333 20H14.1666C13.7246 20 13.3007 19.8314 12.9881 19.5313C12.6756 19.2312 12.5 18.8242 12.5 18.3999V14.3995C12.5 14.1873 12.4122 13.9838 12.2559 13.8338C12.0996 13.6837 11.8877 13.5995 11.6667 13.5995H8.33332C8.11231 13.5995 7.90035 13.6837 7.74407 13.8338C7.58779 13.9838 7.49999 14.1873 7.49999 14.3995V18.3999C7.49999 18.8242 7.3244 19.2312 7.01184 19.5313C6.69928 19.8314 6.27535 20 5.83333 20H1.66666C1.22464 20 0.800715 19.8314 0.488155 19.5313C0.175594 19.2312 1.92581e-08 18.8242 1.92581e-08 18.3999V9.15408C-3.50446e-05 8.93262 0.0478116 8.71356 0.140512 8.51077C0.233212 8.30799 0.368747 8.12588 0.538541 7.97598L8.87186 0.427336L8.88332 0.416335C9.19014 0.148445 9.58996 0 10.0047 0C10.4194 0 10.8192 0.148445 11.126 0.416335C11.1296 0.420248 11.1334 0.423923 11.1375 0.427336L19.4708 7.97598C19.6389 8.12667 19.7727 8.30913 19.8638 8.51188C19.9548 8.71463 20.0012 8.93328 20 9.15408Z" fill="white"/>
</svg>
