<svg width="21" height="24" viewBox="0 0 21 24" fill="none" xmlns="http://www.w3.org/2000/svg">
<path d="M10.4 0C7.64275 0.00294898 4.99936 0.997261 3.04969 2.76482C1.10002 4.53238 0.00326387 6.92886 1.10645e-05 9.42857C-0.0032913 11.4713 0.732719 13.4587 2.09514 15.0857C2.09514 15.0857 2.37877 15.4243 2.4251 15.4731L10.4 24L18.3787 15.4689C18.4203 15.4234 18.7049 15.0857 18.7049 15.0857L18.7058 15.0831C20.0675 13.4568 20.8032 11.4704 20.8 9.42857C20.7967 6.92886 19.7 4.53238 17.7503 2.76482C15.8006 0.997261 13.1572 0.00294898 10.4 0ZM10.4 12.8571C9.65203 12.8571 8.92085 12.6561 8.29894 12.2793C7.67702 11.9026 7.1923 11.3671 6.90606 10.7406C6.61982 10.1141 6.54493 9.42477 6.69085 8.75969C6.83677 8.09461 7.19696 7.4837 7.72585 7.00421C8.25475 6.52471 8.9286 6.19817 9.6622 6.06588C10.3958 5.93359 11.1562 6.00148 11.8472 6.26098C12.5383 6.52048 13.1289 6.95993 13.5445 7.52376C13.96 8.08759 14.1818 8.75046 14.1818 9.42857C14.1806 10.3375 13.7817 11.2089 13.0728 11.8517C12.3638 12.4944 11.4026 12.856 10.4 12.8571Z" fill="#99592A"/>
</svg>
