<svg width="16" height="18" viewBox="0 0 16 18" fill="none" xmlns="http://www.w3.org/2000/svg">
<path d="M9.86213 14.8333C10.583 14.8333 10.9638 15.6866 10.483 16.2233C10.1706 16.5728 9.7879 16.8524 9.35993 17.0437C8.93197 17.235 8.4684 17.3337 7.99963 17.3333C7.53086 17.3337 7.06729 17.235 6.63933 17.0437C6.21136 16.8524 5.82866 16.5728 5.5163 16.2233C5.0563 15.71 5.38463 14.9075 6.04463 14.8391L6.1363 14.8341L9.86213 14.8333ZM7.99963 0.666626C9.1313 0.666626 10.088 1.41913 10.3955 2.45079L10.4338 2.59329L10.4405 2.62913C11.3591 3.14738 12.1419 3.87588 12.7248 4.75496C13.3077 5.63404 13.674 6.63869 13.7938 7.68663L13.8171 7.92579L13.833 8.16663V10.6091L13.8505 10.7225C13.9646 11.3365 14.3044 11.8856 14.803 12.2616L14.9421 12.3591L15.0771 12.4416C15.7938 12.8475 15.5438 13.9133 14.763 13.995L14.6663 14H1.33296C0.476297 14 0.177131 12.8633 0.922131 12.4416C1.23966 12.2619 1.514 12.0149 1.72591 11.7179C1.93782 11.4209 2.08216 11.0812 2.1488 10.7225L2.1663 10.6033L2.16713 8.12829C2.21794 7.03986 2.53476 5.98047 3.08987 5.04285C3.64497 4.10523 4.42144 3.31796 5.3513 2.74996L5.55796 2.62829L5.5663 2.59246C5.68418 2.09415 5.95209 1.64399 6.33387 1.30274C6.71565 0.961489 7.19293 0.745571 7.7013 0.684126L7.85296 0.669959L7.99963 0.666626Z" fill="#989795"/>
</svg>
